<svg xmlns="http://www.w3.org/2000/svg" xmlns:xlink="http://www.w3.org/1999/xlink" width="24" height="24"><g transform="matrix(-.698319 0 0 .698319 32.853426 -11.889396)" stroke-linejoin="round"><use xlink:href="#B" fill="none" stroke="#fff" stroke-width="5.512"/><g stroke="#000"><g stroke-width="2.756"><use xlink:href="#B" fill="#fff" fill-rule="evenodd"/><path d="M29.961 34.169v-8.723m.025 9.018l5.869 3.389" fill="none" stroke-linecap="round"/></g><path d="M31.178 34.31c0 .672-.545 1.217-1.217 1.217s-1.217-.545-1.217-1.217a1.22 1.22 0 0 1 1.217-1.218 1.22 1.22 0 0 1 1.217 1.218z" fill-rule="evenodd" stroke-width="1.723"/></g></g><defs ><path id="B" d="M43.399 34.31c0 7.418-6.02 13.438-13.438 13.438s-13.438-6.02-13.438-13.438 6.02-13.438 13.438-13.438 13.438 6.02 13.438 13.438z"/></defs></svg>