<svg xmlns="http://www.w3.org/2000/svg" width="128" height="128"><path d="M74.262 51.121c-2.066-2.236-5.647-2.236-7.713 0L49.331 68.59c-2.204 2.236-2.204 5.73 0 7.966 2.066 2.236 5.647 2.236 7.851 0l7.713-7.826v39.968c0 3.074 2.617 5.73 5.51 5.73 3.03 0 5.51-2.655 5.51-5.73V68.729l7.713 7.826c2.204 2.236 5.647 2.236 7.989 0 2.066-2.236 2.066-5.73 0-7.966-.138-.279-17.355-17.469-17.355-17.469zm43.388-20.857L90.929 3.152c-.689-.838-2.204-1.677-3.994-1.677H27.155c-3.168 0-5.647 2.515-5.647 5.73V121.52c0 3.214 2.479 5.73 5.647 5.73h86.501c3.168 0 5.51-2.515 5.51-5.73V34.317c.138-1.817-.551-3.214-1.515-4.053zM32.802 12.935h48.485l.138 21.382c0 3.074 2.479 5.59 5.51 5.59h21.074v75.884H32.802V12.935z" fill="#c8c8c8"/><g transform="matrix(1.485859 0 0 1.532202 -40.318683 -48.32649)"><path d="M30.5 48h28.041v14H30.5z" fill="#31383e"/><text y="58.695" x="32.869" xml:space="preserve" font-weight="bold" font-size="10.62" font-family="Arial" letter-spacing="0" word-spacing="0" writing-mode="lr-tb" fill="#fff"><tspan y="58.695" x="32.869">SVG</tspan></text></g></svg>