<svg xmlns="http://www.w3.org/2000/svg" width="30" height="25"><path d="M5.102 20.808c-.158.305-.345.591-.345.925l.002.14c0 .723.566 1.159 1.216 1.159h21.023c.652 0 1.211-.541 1.211-1.263l-.007-.14c0-.336-.165-.627-.345-.927L17.446 2.026c-.46-.51-1.206-.51-1.666.001L5.102 20.808z" fill="#ffd42a" stroke="#000" stroke-width="1.184"/><circle cx="16.841" cy="19.046" r="1.685"/><path d="M16.83 7.339c.662 0 1.689.528 1.689 1.183l-.494 6.809c0 .655-.533 1.183-1.195 1.183s-1.195-.528-1.195-1.183l-.577-6.809c0-.655 1.11-1.183 1.772-1.183z"/></svg>