<svg xmlns="http://www.w3.org/2000/svg" xmlns:xlink="http://www.w3.org/1999/xlink" viewBox="0 0 32 32"><defs><clipPath id="A"><path d="M0 0h6100v6100H0z"/></clipPath><path id="B" d="M5051 3051c0 351-92 696-268 1000s-428 556-732 732-649 268-1000 268c-352 0-697-92-1001-268s-556-428-732-732-268-649-268-1000c0-352 92-697 268-1001s428-556 732-732 649-268 1000-268c352 0 697 92 1001 268s556 428 732 732 268 649 268 1000v1z"/></defs><g clip-path="url(#A)" transform="matrix(.004703 0 0 .004703 1.871722 1.501433)"><path d="M1050 50h0c-175 0-348 46-500 134S272 398 184 550 50 875 50 1050v4000 1c0 175 46 348 134 500s214 278 366 366 325 134 500 134h4000 1c175 0 348-46 500-134s278-214 366-366 134-325 134-500V1050h0 0c0-175-46-348-134-500s-214-278-366-366-325-134-500-134H1050z"/><use xlink:href="#B" fill="#b2b2b2"/><path d="M2351 3050c0 44-12 88-34 126s-53 69-91 91-82 34-125 34c-44 0-88-12-126-34s-69-53-91-91-34-82-34-126c0-43 12-87 34-125s53-69 91-91 82-34 126-34c43 0 87 12 125 34s69 53 91 91 34 82 34 125h0zm1900 0c0 44-12 88-34 126s-53 69-91 91-82 34-126 34c-43 0-87-12-125-34s-69-53-91-91-34-82-34-126c0-43 12-87 34-125s53-69 91-91 82-34 125-34c44 0 88 12 126 34s69 53 91 91 34 82 34 125h0z"/><g fill="#666"><path d="M2950 4750h201v301h-201z"/><path d="M3050 5050h-100v-300h200v300h-100zm0-3700h-100v-300h200v300h-100z"/></g><g stroke="#000"><use xlink:href="#B" fill="none" stroke-width="81" stroke-linejoin="round"/><g fill="#666"><path d="M3011.398 3171.154c-61.543-27.952-100.395-107.41-83.226-170.206 19.706-72.072 68.886-113.139 140.44-117.268 52.896-3.054 96.637 16.076 128.137 56.037 98.108 124.461-40.322 297.308-185.351 231.437z" stroke-width="7.208" stroke-opacity="0"/><path d="M3054.596 3183.024c-33.821-5.663-63.519-21.483-85.459-45.528-41.597-45.588-53.6-99.897-33.906-153.411 15.478-42.058 45.012-73.579 82.818-88.39 25.522-9.999 78.117-12.257 105.061-4.514 38.907 11.183 72.299 40.71 91.473 80.886 14.441 30.258 16.984 71.791 6.318 103.23-24.582 72.468-96.938 119.338-166.304 107.726z" stroke-opacity="0" stroke-width="3.402"/></g></g></g></svg>