<?xml version="1.0" encoding="UTF-8" standalone="no"?>
<svg
   xmlns:dc="http://purl.org/dc/elements/1.1/"
   xmlns:cc="http://creativecommons.org/ns#"
   xmlns:rdf="http://www.w3.org/1999/02/22-rdf-syntax-ns#"
   xmlns:svg="http://www.w3.org/2000/svg"
   xmlns="http://www.w3.org/2000/svg"
   xmlns:sodipodi="http://sodipodi.sourceforge.net/DTD/sodipodi-0.dtd"
   xmlns:inkscape="http://www.inkscape.org/namespaces/inkscape"
   viewBox="0 0 32 32"
   id="svg2"
   version="1.1"
   inkscape:version="0.91 r13725"
   sodipodi:docname="Ampelschirm.svg">
  <defs
     id="defs9" />
  <sodipodi:namedview
     pagecolor="#ffffff"
     bordercolor="#666666"
     borderopacity="1"
     objecttolerance="10"
     gridtolerance="10"
     guidetolerance="10"
     inkscape:pageopacity="0"
     inkscape:pageshadow="2"
     inkscape:window-width="1920"
     inkscape:window-height="1017"
     id="namedview7"
     showgrid="false"
     inkscape:zoom="10.429825"
     inkscape:cx="14.794517"
     inkscape:cy="15.33709"
     inkscape:window-x="-8"
     inkscape:window-y="-8"
     inkscape:window-maximized="1"
     inkscape:current-layer="svg2" />
  <title
     id="title4184">Ampelschirm</title>
  <metadata
     id="metadata36">
    <rdf:RDF>
      <cc:Work
         rdf:about="">
        <dc:format>image/svg+xml</dc:format>
        <dc:type
           rdf:resource="http://purl.org/dc/dcmitype/StillImage" />
        <dc:title>Ampelschirm</dc:title>
      </cc:Work>
    </rdf:RDF>
  </metadata>
  <g
     style="fill:#000000"
     transform="matrix(0.00482866,0,0,-0.00642453,0.9505472,31.708819)"
     id="g4">
    <path
       id="path14"
       style="fill-opacity:1;fill-rule:nonzero;stroke:none"
       d="m 3047.3,4796.95 c -158,-15 -160.97,-16.99 -156.99,-146.99 1.99,-50 8.99,-95.98 15,-101.99 43.01,-43.01 -25,-66.02 -478.98,-156.99 -223.01,-44.03 -421.02,-85 -440,-90 -33.01,-10 -201.02,-47 -645,-145 -192.03,-42 -376.021,-85 -830.002,-195 -115,-28.01 -275,-64.03 -354.027,-80 -78.9807,-16.02 -148.00022,-33.01 -153.98069,-39.03 -6.99219,-6.99 -3.011716,-26.99 13.00779,-62.97 17.9727,-43 21.9922,-66.01 18.9805,-128 -5,-114.03 -1.0078,-300 8.0117,-350 6.9883,-39.03 11.9883,-45 40,-51.02 16.9887,-3.01 54.9997,-20.98 83.0077,-38.01 60,-36.99 70,-31.99 70,36.02 0,61.99 16.992,61.01 23.981,-1.02 8.011,-63.98 31.992,-90 78.992,-87.97 152.027,5.98 812.029,0.98 927.029,-8 80,-6.02 196.99,-13.01 260.97,-17 l 115,-6.01 21.02,26.01 c 15.98,20.98 21.99,47.97 28.01,122 8.98,125 27.97,123 36.99,-5 5,-69.03 10.98,-99.03 25.98,-119.03 23,-30.97 3,-30.97 562.03,-11.99 381.99,13.01 490,11.99 873.98,-10 221.99,-11.99 238.01,-8.98 255,45 5,16.99 13.01,63.01 16.99,101.02 15,153.98 39.03,148 50,-14.03 5,-73.98 12,-107.97 24.03,-123.98 l 17.97,-21.02 173,18.01 c 268.01,26.99 490,36.99 903.01,40 351.99,1.99 380,4.02 391.99,21.02 12,15.97 18.01,45 26.02,125 1.99,13.98 8.98,25 18.01,25 11.99,0 15.97,-17 17.97,-77 3,-72.03 5,-78 26.01,-84.02 13.99,-3.01 45,3.01 71.99,14.02 42,17.97 290,50.98 299.03,40 0.97,-2.03 16.99,-31.01 33.98,-65 48.99,-98 91.02,-211.01 91.02,-244.02 0,-33.98 23.98,-96.99 43.98,-113.01 6.99,-5.97 26.99,-65 43.99,-130.97 93,-357 114.02,-733.01 63,-1103.01 -18.98,-133.99 -66.99,-345 -91.99,-401.99 -23.98,-54.03 -38.98,-141.02 -45,-260 -3.98,-69.031 -11.01,-130 -16.01,-137 -5,-6.011 -12.97,-60 -17.97,-120 -10,-120 -23.01,-182.031 -40,-193 -6.02,-4.031 -77.03,-10 -158.01,-14.031 -178.01,-7.969 -273.01,-25.969 -326.99,-63.98 l -40,-28.008 -3.01,-98.981 c -1.99,-55 0,-110 3.01,-122 27.97,-114.9995 805.97,-186.0113 1160,-106.0112 75.97,16.9921 140,45 147.97,65.0002 5,13.98 -2,190 -8.99,226.011 -10,48.989 -188.01,100 -418.01,120.981 -60,5 -111.99,13.008 -115.97,18.008 -13.01,15 -39.03,146.011 -44.03,228.011 -3,43.981 -10,80.969 -15,83 -15.97,5 -13,185 3.01,257 8.01,33 35,138.98 60,235 73.01,278.98 88.99,425.97 83.01,770 -6.02,310.97 -19.02,416.99 -86.02,675 -18,65 -30,125.97 -28,135 3,10 5,8 6.01,-6.02 1.99,-31.99 21.99,-43.98 76.02,-43.98 37.97,0 56.99,5 67.97,18 22.03,23.99 21.01,57 -2,78.99 -10,10 -21.99,31.99 -25,50 -3.98,16.99 -20.97,51.99 -36.99,76.99 -28.01,41.02 -98.98,204.02 -98.98,225 0,5 20,11.99 45,16.02 66.99,10 71.99,21.99 78.98,220 3.99,93.98 8.01,191.99 8.99,220 l 2.03,50 -80,23 c -44.03,12 -163.01,45 -265,72.97 -102.03,27.03 -197.03,55 -211.02,60 -31.01,12.03 -198.98,191.02 -198.98,212.03 0,17.97 -72.03,77 -94.03,77 -8,0 -55,31.99 -103,70.97 -238.99,192.03 -590,368.01 -907.97,454.03 -217.03,58.98 -421.02,85 -653.01,83.98 -108.01,-0.98 -253.01,-6.99 -321.02,-13.01 z m 645,-111.99 c 368.01,-38.98 814.03,-220.98 1140,-463.98 96.02,-72 124.03,-98.01 124.03,-115 0,-23.01 -27.03,-30 -45,-11.02 -9.03,9.02 -24.03,16.02 -32.03,16.02 -20.98,0 -52.97,-29.03 -52.97,-47 0,-17.03 1.99,-17.03 -110,12 -213.01,55 -1094.03,275 -1200,300 -125,28 -407.03,105 -444.03,120 -45,18.98 -50.97,30 -31.99,56.99 21.02,30 20,76.99 -1.01,100 -15,16.99 -15,20 -2.97,28.01 7.97,5.97 28.98,10 45,10.97 16.99,1.02 80,5 140,8.01 138.98,9.02 302.97,4.02 470.97,-15 z m 1404.03,-688.98 c 25,-27 17.97,-31.02 -24.03,-15 -13.98,5 -25.97,15.97 -25.97,25 0,23 23.98,18 50,-10 z m 548.98,-772 c 18.01,-39.02 91.02,-222.03 91.02,-228 0,-3.01 -7.03,-5 -16.02,-5 -10,0 -36.01,43.98 -75,125.97 -31.99,69.03 -58.98,128.01 -58.98,130 0,2.03 10.97,4.03 22.97,4.03 16.01,0 28,-9.03 36.01,-27 z"
       inkscape:connector-curvature="0" />
  </g>
</svg>
