<?xml version="1.0" encoding="UTF-8" standalone="no"?>
<!-- Generator: Adobe Illustrator 18.0.0, SVG Export Plug-In . SVG Version: 6.00 Build 0)  -->

<svg
   xmlns:dc="http://purl.org/dc/elements/1.1/"
   xmlns:cc="http://creativecommons.org/ns#"
   xmlns:rdf="http://www.w3.org/1999/02/22-rdf-syntax-ns#"
   xmlns:svg="http://www.w3.org/2000/svg"
   xmlns="http://www.w3.org/2000/svg"
   xmlns:sodipodi="http://sodipodi.sourceforge.net/DTD/sodipodi-0.dtd"
   xmlns:inkscape="http://www.inkscape.org/namespaces/inkscape"
   version="1.1"
   id="Ebene_1"
   x="0px"
   y="0px"
   viewBox="0 0 32 32"
   style="enable-background:new 0 0 32 32;"
   xml:space="preserve"
   inkscape:version="0.91 r13725"
   sodipodi:docname="battery-status-46-50.svg"><title
     id="title4149">Battery 46-50</title><metadata
     id="metadata13"><rdf:RDF><cc:Work
         rdf:about=""><dc:format>image/svg+xml</dc:format><dc:type
           rdf:resource="http://purl.org/dc/dcmitype/StillImage" /><dc:title>Battery 46-50</dc:title></cc:Work></rdf:RDF></metadata><defs
     id="defs11" /><sodipodi:namedview
     pagecolor="#ffffff"
     bordercolor="#666666"
     borderopacity="1"
     objecttolerance="10"
     gridtolerance="10"
     guidetolerance="10"
     inkscape:pageopacity="0"
     inkscape:pageshadow="2"
     inkscape:window-width="1920"
     inkscape:window-height="1017"
     id="namedview9"
     showgrid="false"
     inkscape:zoom="10.429825"
     inkscape:cx="0.30896383"
     inkscape:cy="20.391668"
     inkscape:window-x="-8"
     inkscape:window-y="-8"
     inkscape:window-maximized="1"
     inkscape:current-layer="Ebene_1" /><path
     d="m 21.018085,3.6575246 -2.188866,0 0,-1.6332236 -5.715888,0 0,1.6332236 -2.07613,0 c -1.3509867,0 -2.4496807,1.0989931 -2.4496807,2.4498594 l 0,21.776245 c 0,1.350566 1.098993,2.449742 2.4496807,2.449742 l 9.980884,0 c 1.351409,0 2.449862,-1.099176 2.449862,-2.449742 l 0,-21.776305 c 0,-1.3508063 -1.098453,-2.4497994 -2.449862,-2.4497994 z m 0.816941,24.2262844 c 0,0.45005 -0.366471,0.8164 -0.816941,0.8164 l -9.980884,0 c -0.450471,0 -0.816882,-0.365692 -0.816882,-0.8164 l 0,-21.776485 c 0,-0.4500464 0.366411,-0.8166412 0.816882,-0.8166412 l 9.980884,0 c 0.45047,0 0.816941,0.3665335 0.816941,0.8166412 z m -0.890559,-0.150115 c 6.158535,1.733119 3.079267,0.866558 0,0 z"
     id="Battery"
     inkscape:connector-curvature="0"
     style="fill:#ffffff;fill-opacity:1"
     sodipodi:nodetypes="sccccssssssssssssssssscc"
     inkscape:label="Battery" /><rect
     style="opacity:1;fill:#f6ed00;fill-opacity:1;stroke:none;stroke-width:1;stroke-miterlimit:4;stroke-dasharray:none;stroke-opacity:1"
     id="Level_46-50"
     width="10.834677"
     height="9.9920578"
     x="-27.917482"
     y="11.047863"
     transform="matrix(0,-1,1,0,0,0)"
     inkscape:label="Level_46-50" /></svg>