<?xml version="1.0" encoding="UTF-8" standalone="no"?>
<svg
   xmlns:dc="http://purl.org/dc/elements/1.1/"
   xmlns:cc="http://creativecommons.org/ns#"
   xmlns:rdf="http://www.w3.org/1999/02/22-rdf-syntax-ns#"
   xmlns:svg="http://www.w3.org/2000/svg"
   xmlns="http://www.w3.org/2000/svg"
   xmlns:sodipodi="http://sodipodi.sourceforge.net/DTD/sodipodi-0.dtd"
   xmlns:inkscape="http://www.inkscape.org/namespaces/inkscape"
   viewBox="0 0 32 32"
   id="svg2"
   version="1.1"
   inkscape:version="0.91 r13725"
   sodipodi:docname="Briefkasten_leer.svg">
  <title
     id="title4184">Briefkasten_leer</title>
  <metadata
     id="metadata36">
    <rdf:RDF>
      <cc:Work
         rdf:about="">
        <dc:format>image/svg+xml</dc:format>
        <dc:type
           rdf:resource="http://purl.org/dc/dcmitype/StillImage" />
        <dc:title>Briefkasten_leer</dc:title>
      </cc:Work>
    </rdf:RDF>
  </metadata>
  <sodipodi:namedview
     pagecolor="#ffffff"
     bordercolor="#666666"
     borderopacity="1"
     objecttolerance="10"
     gridtolerance="10"
     guidetolerance="10"
     inkscape:pageopacity="0"
     inkscape:pageshadow="2"
     inkscape:window-width="1920"
     inkscape:window-height="1017"
     id="namedview34"
     showgrid="false"
     inkscape:zoom="14.75"
     inkscape:cx="12.822141"
     inkscape:cy="13.81757"
     inkscape:window-x="-8"
     inkscape:window-y="-8"
     inkscape:window-maximized="1"
     inkscape:current-layer="svg2" />
  <defs
     id="defs4">
    <clipPath
       id="A">
      <path
         d="M0 0h6100v6100H0z"
         id="path7" />
    </clipPath>
    <path
       id="B"
       d="M5051 3051c0 351-92 696-268 1000s-428 556-732 732-649 268-1000 268c-352 0-697-92-1001-268s-556-428-732-732-268-649-268-1000c0-352 92-697 268-1001s428-556 732-732 649-268 1000-268c352 0 697 92 1001 268s556 428 732 732 268 649 268 1000v1z" />
  </defs>
  <g
     style="fill:#000000"
     transform="matrix(0.00953856,0,0,-0.00692597,-0.77533049,32.490836)"
     id="g4">
    <path
       inkscape:connector-curvature="0"
       d="m 885,4638 c -11,-7 -38,-28 -60,-48 -89,-81 -175,-159 -255,-230 -46,-41 -112,-100 -145,-130 -33,-30 -94,-85 -136,-122 l -75,-67 2,-78 c 0,-43 2,-84 2,-90 1,-8 17,-13 41,-13 22,0 46,-3 55,-6 15,-6 16,-141 16,-1430 l 0,-1424 23,-4 c 12,-3 54,-7 92,-10 39,-3 113,-10 165,-16 117,-13 392,-42 675,-70 61,-6 116,-13 123,-15 9,-3 12,-90 12,-390 l 0,-385 30,0 c 28,0 30,2 30,38 0,42 24,202 40,269 28,117 113,234 209,289 34,20 61,27 106,28 86,2 85,8 85,-336 l 0,-288 50,0 50,0 0,356 0,357 63,-7 c 34,-3 103,-10 152,-15 50,-5 163,-17 252,-26 l 163,-17 272,164 c 150,91 284,171 298,179 14,8 28,19 32,24 4,6 8,776 8,1711 l 0,1702 -42,6 c -24,3 -160,10 -303,16 -143,5 -359,14 -480,19 -121,6 -330,15 -465,21 -135,6 -337,15 -450,20 -113,5 -284,12 -380,15 -96,3 -188,8 -205,10 -16,2 -39,-1 -50,-7 z m 430,-88 c 99,-5 347,-17 550,-25 702,-29 1258,-55 1263,-60 4,-4 -17,-26 -153,-155 -55,-52 -154,-146 -219,-209 l -118,-115 -146,3 c -81,1 -160,4 -177,6 -16,3 -145,10 -285,15 -140,6 -410,17 -600,25 -190,8 -448,19 -575,25 -342,14 -456,22 -453,31 2,4 97,92 213,195 116,103 230,207 255,231 l 45,43 110,0 c 61,0 191,-4 290,-10 z m 1625,-444 c -222,-222 -243,-237 -232,-167 3,21 59,83 225,247 l 222,219 3,-39 c 3,-40 3,-41 -218,-260 z m 220,-1405 0,-1518 -209,-127 c -115,-69 -214,-126 -220,-126 -8,0 -11,406 -11,1432 l 0,1433 212,212 c 117,117 216,213 220,213 5,0 8,-683 8,-1519 z M 730,4000 c 107,-6 341,-17 520,-25 179,-8 417,-19 530,-25 113,-5 300,-14 415,-20 116,-5 256,-13 313,-16 l 102,-6 0,-38 c 0,-22 -4,-41 -9,-45 -5,-3 -85,-1 -178,5 -155,9 -261,14 -833,40 -113,6 -295,14 -405,20 -110,5 -350,16 -534,25 -183,8 -337,18 -342,21 -5,3 -9,23 -9,45 l 0,40 118,-6 c 64,-3 205,-10 312,-15 z m 10,-160 c 118,-5 319,-14 445,-20 535,-24 926,-41 1159,-50 137,-6 253,-13 258,-16 11,-7 11,-2861 -1,-2868 -5,-3 -44,-2 -87,3 -88,11 -205,23 -429,46 -294,30 -351,36 -440,45 -151,16 -374,39 -485,50 -58,6 -145,15 -195,20 -81,9 -300,31 -445,46 -30,3 -63,7 -72,10 -17,5 -18,79 -18,1375 l 0,1369 48,0 c 26,-1 144,-5 262,-10 z"
       id="path6" />
    <path
       inkscape:connector-curvature="0"
       d="m 880.79314,2751.8934 c -64,-11.1648 -106,-29.1526 -126,-52.7227 -19,-22.3296 -20,-86.2171 -2,-89.9386 12,-3.1014 569.99996,-18.6081 1354.99996,-38.4566 l 162,-3.7216 0,34.1147 c 0,73.8117 -71,121.5722 -196,131.4965 -64,4.9621 -685,21.7093 -944,25.431 -154.99996,2.481 -205.99996,1.2405 -248.99996,-6.2027 z m 618.99996,-43.4187 c 463,-12.4053 603,-19.2283 640,-31.0133 30,-9.304 60,-37.2161 60,-55.824 0,-11.7851 -64,-12.4053 -325,-3.1013 -273,9.9242 -860,24.8106 -951.99996,24.8106 -45,0 -88,1.8608 -97,3.7216 -28,6.8229 -19,36.5958 15,54.5835 30,15.5066 34,16.1269 171.99996,16.1269 78,0 297,-4.3418 487,-9.304 z"
       id="path8" />
  </g>
</svg>
