<?xml version="1.0" encoding="UTF-8" standalone="no"?>
<svg
   xmlns:dc="http://purl.org/dc/elements/1.1/"
   xmlns:cc="http://creativecommons.org/ns#"
   xmlns:rdf="http://www.w3.org/1999/02/22-rdf-syntax-ns#"
   xmlns:svg="http://www.w3.org/2000/svg"
   xmlns="http://www.w3.org/2000/svg"
   xmlns:sodipodi="http://sodipodi.sourceforge.net/DTD/sodipodi-0.dtd"
   xmlns:inkscape="http://www.inkscape.org/namespaces/inkscape"
   viewBox="0 0 32 32"
   id="svg2"
   version="1.1"
   inkscape:version="0.91 r13725"
   sodipodi:docname="Lab_Flask_red.svg">
  <metadata
     id="metadata12">
    <rdf:RDF>
      <cc:Work
         rdf:about="">
        <dc:format>image/svg+xml</dc:format>
        <dc:type
           rdf:resource="http://purl.org/dc/dcmitype/StillImage" />
        <dc:title>Lab_Flask_red</dc:title>
      </cc:Work>
    </rdf:RDF>
  </metadata>
  <defs
     id="defs10" />
  <sodipodi:namedview
     pagecolor="#ffffff"
     bordercolor="#666666"
     borderopacity="1"
     objecttolerance="10"
     gridtolerance="10"
     guidetolerance="10"
     inkscape:pageopacity="0"
     inkscape:pageshadow="2"
     inkscape:window-width="1920"
     inkscape:window-height="1017"
     id="namedview8"
     showgrid="false"
     inkscape:zoom="7.375"
     inkscape:cx="-10.162653"
     inkscape:cy="-0.98279158"
     inkscape:window-x="-8"
     inkscape:window-y="-8"
     inkscape:window-maximized="1"
     inkscape:current-layer="svg2" />
  <title
     id="title4">Lab_Flask_red</title>
  <text
     xml:space="preserve"
     style="color:#000000;font-style:normal;font-variant:normal;font-weight:normal;font-stretch:normal;font-size:0.8544966px;line-height:normal;font-family:'Droid Sans Thai';-inkscape-font-specification:'Droid Sans Thai';text-indent:0;text-align:center;text-decoration:none;text-decoration-line:none;text-decoration-style:solid;text-decoration-color:#000000;letter-spacing:normal;word-spacing:normal;text-transform:none;direction:ltr;block-progression:tb;writing-mode:lr-tb;baseline-shift:baseline;text-anchor:middle;white-space:normal;clip-rule:nonzero;display:inline;overflow:visible;visibility:visible;opacity:1;isolation:auto;mix-blend-mode:normal;color-interpolation:sRGB;color-interpolation-filters:linearRGB;solid-color:#000000;solid-opacity:1;fill:#000000;fill-opacity:1;fill-rule:evenodd;marker:none;color-rendering:auto;image-rendering:auto;shape-rendering:auto;text-rendering:auto;enable-background:accumulate;"
     x="9.8169823"
     y="-11.108305"
     id="text3347"><tspan
       sodipodi:role="line"
       id="tspan3349"
       x="9.8169823"
       y="-11.108305"
       style="font-size:2.84832191px;" /></text>
  <path
     id="rect2985"
     sodipodi:nodetypes="ssscscccsscccscssss"
     style="fill:#000000"
     inkscape:connector-curvature="0"
     d="m 12.369457,1.365279 c -0.514431,0 -0.93095,0.5992271 -0.93095,1.113692 l 0,0.440829 c 0,0.363936 0.209924,0.677045 0.513332,0.829434 -0.0045,0.0603 -0.0087,0.121194 -0.0087,0.182711 l 0,8.76144 c -0.137733,0.259469 -0.271922,0.529708 -0.417631,0.79753 L 3.9962107,27.11045 c -1.212473,2.228925 1.0948389,4.124085 2.4536039,4.124085 l 18.8399394,0 c 1.358706,0 3.690798,-1.849812 2.453601,-4.124085 L 20.214671,13.490915 c -0.145709,-0.267852 -0.279898,-0.538083 -0.417632,-0.79753 l 0,-8.76144 c 0,-0.06151 -0.0041,-0.122404 -0.0087,-0.182711 C 20.091755,3.596801 20.301667,3.28371 20.301667,2.9198 l 0,-0.440829 c 0,-0.5144387 -0.41362,-1.113692 -0.92804,-1.113692 z" />
  <g
     id="g3213"
     style="fill:#ffffff"
     transform="matrix(0.09280403,0,0,0.09280403,-85.833272,-58.974711)">
    <path
       id="path3201"
       sodipodi:nodetypes="sssssssss"
       style="fill:#ffffff"
       inkscape:connector-curvature="0"
       d="m 1080.3,768.8 31.307,0 c 12.456,0 16.531,11.607 22.483,22.611 l 70.701,130.71 c 14.28,26.399 -10.028,38.012 -22.484,38.012 l -172.71,0 c -12.456,0 -35.208,-14.489 -22.483,-38.012 l 70.701,-130.71 c 5.9522,-11.004 10.028,-22.611 22.483,-22.611 z" />
    <rect
       id="rect3203"
       style="fill:#ffffff"
       ry="0"
       height="117.7"
       width="64.230003"
       y="670.48999"
       x="1063.8" />
    <rect
       id="rect3205"
       style="fill:#ffffff"
       transform="matrix(0,-1,1,0,0,0)"
       ry="4.3000002"
       height="75.528999"
       width="13.263"
       y="1058.1"
       x="-671.96002" />
  </g>
  <path
     id="path3201-1"
     d="m 19.702175,16.258012 5.236754,9.954885 c 1.146451,2.17931 -0.822707,3.118686 -1.844628,3.118686 l -14.1698366,0 c -1.021922,0 -2.8928124,-1.190998 -1.8446314,-3.118686 l 5.134218,-9.442187 c 4.539088,1.780544 6.189973,-3.168474 7.48824,-0.512641 z"
     sodipodi:nodetypes="csssscc"
     style="fill:#e51d50;fill-opacity:1;stroke-width:25.79999924"
     inkscape:connector-curvature="0" />
  <circle
     r="1.6917033"
     cy="23.494703"
     cx="14.823948"
     id="path3252"
     style="fill:#ffffff" />
  <circle
     r="0.99966222"
     cy="21.471167"
     cx="13.111071"
     id="path3254"
     style="fill:#ffffff" />
  <circle
     r="0.58954811"
     cy="19.524561"
     cx="17.467215"
     id="path3256"
     style="fill:#ffffff" />
  <rect
     id="rect3264"
     style="fill:#000000"
     ry="0.42952126"
     height="9.3481932"
     width="0.85905385"
     y="3.4764566"
     x="16.961519" />
  <flowRoot
     transform="matrix(0.05696644,0,0,0.05696644,-4.912912,-16.939519)"
     xml:space="preserve"
     id="flowRoot4185"
     style="color:#000000;font-style:normal;font-variant:normal;font-weight:normal;font-stretch:normal;font-size:50px;line-height:normal;font-family:'Droid Sans Thai';-inkscape-font-specification:'Droid Sans Thai';text-indent:0;text-align:center;text-decoration:none;text-decoration-line:none;text-decoration-style:solid;text-decoration-color:#000000;letter-spacing:normal;word-spacing:normal;text-transform:none;direction:ltr;block-progression:tb;writing-mode:lr-tb;baseline-shift:baseline;text-anchor:middle;white-space:normal;clip-rule:nonzero;display:inline;overflow:visible;visibility:visible;opacity:1;isolation:auto;mix-blend-mode:normal;color-interpolation:sRGB;color-interpolation-filters:linearRGB;solid-color:#000000;solid-opacity:1;fill:#cc0000;fill-opacity:0;fill-rule:evenodd;marker:none;color-rendering:auto;image-rendering:auto;shape-rendering:auto;text-rendering:auto;enable-background:accumulate;"><flowRegion
       id="flowRegion4187"><rect
         id="rect4189"
         width="508.26855"
         height="127.62691"
         x="135.46364"
         y="237.34126"
         style="font-size:50px;" /></flowRegion><flowPara
       id="flowPara4191" /></flowRoot></svg>
