<?xml version="1.0" encoding="UTF-8" standalone="no"?>
<!-- Generator: Adobe Illustrator 18.0.0, SVG Export Plug-In . SVG Version: 6.00 Build 0)  -->

<svg
   xmlns:dc="http://purl.org/dc/elements/1.1/"
   xmlns:cc="http://creativecommons.org/ns#"
   xmlns:rdf="http://www.w3.org/1999/02/22-rdf-syntax-ns#"
   xmlns:svg="http://www.w3.org/2000/svg"
   xmlns="http://www.w3.org/2000/svg"
   xmlns:sodipodi="http://sodipodi.sourceforge.net/DTD/sodipodi-0.dtd"
   xmlns:inkscape="http://www.inkscape.org/namespaces/inkscape"
   version="1.1"
   id="Ebene_1"
   x="0px"
   y="0px"
   viewBox="0 0 32 32"
   style="enable-background:new 0 0 32 32;"
   xml:space="preserve"
   inkscape:version="0.91 r13725"
   sodipodi:docname="1b64a4e5-02b4-a62f-ffffeee000000000.svg"><metadata
     id="metadata9"><rdf:RDF><cc:Work
         rdf:about=""><dc:format>image/svg+xml</dc:format><dc:type
           rdf:resource="http://purl.org/dc/dcmitype/StillImage" /><dc:title></dc:title></cc:Work></rdf:RDF></metadata><defs
     id="defs7" /><sodipodi:namedview
     pagecolor="#ffffff"
     bordercolor="#666666"
     borderopacity="1"
     objecttolerance="10"
     gridtolerance="10"
     guidetolerance="10"
     inkscape:pageopacity="0"
     inkscape:pageshadow="2"
     inkscape:window-width="1920"
     inkscape:window-height="1017"
     id="namedview5"
     showgrid="false"
     inkscape:zoom="20.85965"
     inkscape:cx="26.754352"
     inkscape:cy="13.718864"
     inkscape:window-x="-8"
     inkscape:window-y="-8"
     inkscape:window-maximized="1"
     inkscape:current-layer="g4182" /><g
     id="g4182"><path
       sodipodi:nodetypes="cccscscc"
       id="path3-7"
       d="m 8.104749,7.973978 c 0.1,-2 2.2,-5.4999999 8.000001,-4.8999999 5.9,0.6 7.5,4.6999999 7.6,4.8999999 0.3,0.7999999 -0.1,1.6999999 -1.8,2.5 -1.7,0.8 -3.2,2.1 -3.5,2.800001 -0.7,-0.700001 -1.7,-1.100001 -2.8,-1.100001 -1.5,0 -2.900001,0.8 -3.600001,2.000001 -1.4,-1.1 -4.1000004,-3.500001 -3.9,-6.200001 z"
       style="clip-rule:evenodd;fill-opacity:1;fill-rule:evenodd"
       inkscape:connector-curvature="0" /><path
       sodipodi:nodetypes="ccccsccc"
       id="path3-6"
       d="m 27.104749,23.573978 c -3.5,4.8 -7.8,4.2 -8.1,4.1 -0.8,-0.1 -1.4,-0.9 -1.2,-2.8 0.2,-1.8 -0.2,-3.8 -0.7,-4.4 1.6,-0.6 2.8,-2.2 2.8,-4 0,-0.7 -0.2,-1.4 -0.5,-2 1.7,-0.7 5.3,-1.8 7.5,-0.3 1.6,1.1 3.7,4.7 0.2,9.4 z"
       style="clip-rule:evenodd;fill-opacity:1;fill-rule:evenodd"
       inkscape:connector-curvature="0" /><path
       sodipodi:nodetypes="sscccccs"
       id="path3-3"
       d="m 15.704749,20.821918 c -0.3,1.8 -1.1,5.4 -3.5,6.6 -1.8,0.9 -5.9000004,0.9 -8.2000004,-4.5 -2.4,-5.4 0.3,-8.8 0.5,-9.1 0.5,-0.6 1.5,-0.8 3,0.3 1.4,1 3.1000004,1.6 3.9000004,1.6 0,0.2 -0.1,0.5 -0.1,0.8 0.1,2.4 2,4.3 4.4,4.3 z"
       style="clip-rule:evenodd;fill-opacity:1;fill-rule:evenodd"
       inkscape:connector-curvature="0" /><path
       sodipodi:nodetypes="ssssssssss"
       id="path3-3-5"
       d="m 15.622309,13.317323 c -1.8,0 -3.3,1.5 -3.3,3.3 0,1.8 1.5,3.3 3.3,3.3 1.8,0 3.3,-1.5 3.3,-3.3 0,-1.8 -1.5,-3.3 -3.3,-3.3 z m 0,4.6 c -0.8,0 -1.4,-0.6 -1.4,-1.4 0,-0.8 0.6,-1.4 1.4,-1.4 0.8,0 1.4,0.6 1.4,1.4 0,0.8 -0.6,1.4 -1.4,1.4 z"
       style="clip-rule:evenodd;fill-opacity:1;fill-rule:evenodd"
       inkscape:connector-curvature="0" /></g></svg>