<?xml version="1.0" encoding="UTF-8" standalone="no"?>
<!-- Generator: Adobe Illustrator 18.0.0, SVG Export Plug-In . SVG Version: 6.00 Build 0)  -->

<svg
   xmlns:dc="http://purl.org/dc/elements/1.1/"
   xmlns:cc="http://creativecommons.org/ns#"
   xmlns:rdf="http://www.w3.org/1999/02/22-rdf-syntax-ns#"
   xmlns:svg="http://www.w3.org/2000/svg"
   xmlns="http://www.w3.org/2000/svg"
   xmlns:sodipodi="http://sodipodi.sourceforge.net/DTD/sodipodi-0.dtd"
   xmlns:inkscape="http://www.inkscape.org/namespaces/inkscape"
   version="1.1"
   id="Ebene_1"
   x="0px"
   y="0px"
   viewBox="0 0 32 32"
   style="enable-background:new 0 0 32 32;"
   xml:space="preserve"
   inkscape:version="0.91 r13725"
   sodipodi:docname="nuki.svg"><title
     id="title4160">Nuki</title><metadata
     id="metadata13"><rdf:RDF><cc:Work
         rdf:about=""><dc:format>image/svg+xml</dc:format><dc:type
           rdf:resource="http://purl.org/dc/dcmitype/StillImage" /><dc:title>Nuki</dc:title></cc:Work></rdf:RDF></metadata><defs
     id="defs11" /><sodipodi:namedview
     pagecolor="#ffffff"
     bordercolor="#666666"
     borderopacity="1"
     objecttolerance="10"
     gridtolerance="10"
     guidetolerance="10"
     inkscape:pageopacity="0"
     inkscape:pageshadow="2"
     inkscape:window-width="1920"
     inkscape:window-height="1017"
     id="namedview9"
     showgrid="false"
     inkscape:zoom="7.375"
     inkscape:cx="16"
     inkscape:cy="16"
     inkscape:window-x="-8"
     inkscape:window-y="-8"
     inkscape:window-maximized="1"
     inkscape:current-layer="Ebene_1" /><g
     transform="matrix(0.71800099,0,0,-0.71800099,8.5278641,31.821892)"
     id="g10"><path
       d="m 21.8281,31.273 c 0.184,-0.1789 0.3481,-0.3781 0.4879,-0.589 0.1488,-0.211 0.2699,-0.4379 0.368,-0.6762 0.1051,-0.2418 0.1832,-0.4918 0.234,-0.75 C 22.973,28.9922 23,28.723 23,28.4531 L 23,2.20313 C 23,2.05508 22.984,1.90586 22.9531,1.76211 22.9301,1.62109 22.891,1.48398 22.8359,1.35195 22.727,1.09414 22.5738,0.858984 22.3871,0.651953 22.293,0.555078 22.191,0.464844 22.0781,0.391016 21.9691,0.308984 21.848,0.242188 21.727,0.187891 21.598,0.132813 21.4648,0.0898438 21.3281,0.0589844 21.191,0.0308594 21.0469,0.0160156 20.9059,0.0160156 l -18.75004,0 c -0.13984,0 -0.28086,0.0148438 -0.41797,0.0429688 C 1.60508,0.0898438 1.47305,0.132813 1.34805,0.187891 1.21914,0.237891 1.09805,0.308984 0.987891,0.391016 0.878906,0.469141 0.773047,0.558984 0.680078,0.651953 0.492188,0.858984 0.339844,1.09414 0.230078,1.35195 0.180078,1.48398 0.137109,1.62109 0.108984,1.76211 0.078125,1.90586 0.0660156,2.05508 0.0660156,2.20313 l 0,26.24997 c -0.0109375,0.2699 0.0039063,0.5348 0.0429684,0.7969 0.10586,0.5121 0.308985,0.9961 0.601954,1.4262 0.141015,0.2109 0.305082,0.4097 0.487892,0.5898"
       style="fill:#1d1d1b;fill-opacity:1;fill-rule:nonzero;stroke:none"
       id="path14"
       inkscape:connector-curvature="0" /><path
       d="M 21.934,33.4488 C 21.9301,28.1051 17.8789,23.6289 12.559,23.098 7.23789,22.5621 2.37891,26.141 1.30898,31.3789 c -0.14101,0.6832 -0.21093,1.375 -0.20703,2.0699 0,2.766 1.09688,5.4141 3.05,7.3672 1.95313,1.9539 4.60196,3.0512 7.36405,3.0512 2.7649,0 5.4141,-1.0973 7.3668,-3.0512 1.9531,-1.9531 3.0512,-4.6012 3.0512,-7.3672 z"
       style="fill:#d9d9d9;fill-opacity:1;fill-rule:nonzero;stroke:none"
       id="path16"
       inkscape:connector-curvature="0" /><path
       d="m 17.3441,33.5781 c 0,-3.3051 -2.68,-5.984 -5.9851,-5.984 -3.30392,0 -5.984,2.6789 -5.984,5.984 0,3.3047 2.68008,5.984 5.984,5.984 3.3051,0 5.9851,-2.6793 5.9851,-5.984 z"
       style="fill:none;stroke:#ffffff;stroke-width:0.75;stroke-linecap:butt;stroke-linejoin:miter;stroke-miterlimit:10;stroke-dasharray:none;stroke-opacity:1"
       id="path18"
       inkscape:connector-curvature="0" /></g><path
     style="opacity:1;fill:#000000;fill-opacity:1"
     d="M 9.8079235,31.741424 C 9.4329277,31.650334 9.1060551,31.422468 8.8713776,31.088564 l -0.2200616,-0.31311 0,-10.088317 0,-10.088318 0.2086432,-0.401593 C 8.9747132,9.9763489 9.1540985,9.7045057 9.2585935,9.5931292 l 0.1899912,-0.2025025 0.135058,0.4930287 c 0.5151263,1.8804596 1.9374413,3.6238596 3.7042553,4.5404876 2.93804,1.524263 6.369521,1.030929 8.742006,-1.256811 0.899091,-0.866976 1.684137,-2.171133 1.966325,-3.2665571 0.0718,-0.2787055 0.1534,-0.5067373 0.181341,-0.5067373 0.116285,0 0.637996,0.8972234 0.730043,1.2555094 0.08157,0.317492 0.09952,2.132701 0.09952,10.062134 0,5.321118 -0.02513,9.792628 -0.05585,9.936692 -0.06536,0.306561 -0.480942,0.819742 -0.809435,0.999526 -0.212686,0.1164 -0.751543,0.126756 -7.166597,0.137717 -3.815142,0.0066 -7.0404428,-0.01337 -7.1673367,-0.0442 z"
     id="path4155"
     inkscape:connector-curvature="0" /></svg>