<?xml version="1.0" encoding="UTF-8" standalone="no"?>
<!-- Generator: Adobe Illustrator 18.0.0, SVG Export Plug-In . SVG Version: 6.00 Build 0)  -->

<svg
   xmlns:dc="http://purl.org/dc/elements/1.1/"
   xmlns:cc="http://creativecommons.org/ns#"
   xmlns:rdf="http://www.w3.org/1999/02/22-rdf-syntax-ns#"
   xmlns:svg="http://www.w3.org/2000/svg"
   xmlns="http://www.w3.org/2000/svg"
   xmlns:sodipodi="http://sodipodi.sourceforge.net/DTD/sodipodi-0.dtd"
   xmlns:inkscape="http://www.inkscape.org/namespaces/inkscape"
   version="1.1"
   id="Ebene_1"
   x="0px"
   y="0px"
   viewBox="0 0 32 32"
   style="enable-background:new 0 0 32 32;"
   xml:space="preserve"
   inkscape:version="0.91 r13725"
   sodipodi:docname="unlocked.svg"><metadata
     id="metadata8"><rdf:RDF><cc:Work
         rdf:about=""><dc:format>image/svg+xml</dc:format><dc:type
           rdf:resource="http://purl.org/dc/dcmitype/StillImage" /><dc:title></dc:title></cc:Work></rdf:RDF></metadata><defs
     id="defs6" /><sodipodi:namedview
     pagecolor="#ffffff"
     bordercolor="#666666"
     borderopacity="1"
     objecttolerance="10"
     gridtolerance="10"
     guidetolerance="10"
     inkscape:pageopacity="0"
     inkscape:pageshadow="2"
     inkscape:window-width="1920"
     inkscape:window-height="1017"
     id="namedview4"
     showgrid="false"
     inkscape:zoom="41.7193"
     inkscape:cx="9.6876257"
     inkscape:cy="22.159503"
     inkscape:window-x="-8"
     inkscape:window-y="-8"
     inkscape:window-maximized="1"
     inkscape:current-layer="Ebene_1" /><path
     id="padlock"
     d="M 9.459322,8.938983 C 10.773482,5.2670648 12.1,2.5 16,2.5 c 3.9,0 7.1,3.2 7.1,7.1 l 0,4 c -0.7,-0.8 -1.6,-1.5 -2.5,-2 l 0,-2 c 0,-2.5 -2,-4.5 -4.5,-4.5 -2.5,0 -3.300017,0.9966787 -4.144068,4.3474576 C 10.581927,10.173174 9.379661,9.1084746 9.459322,8.938983 Z M 25.1,20.4 c 0,5 -4.1,9.1 -9.1,9.1 -5,0 -9.1,-4.1 -9.1,-9.1 0,-5 4.1,-9.1 9.1,-9.1 5,0 9.1,4.1 9.1,9.1 z m -2.3,0 c 0,-3.7 -3,-6.8 -6.8,-6.8 -3.7,0 -6.8,3 -6.8,6.8 0,3.8 3,6.8 6.8,6.8 3.7,0 6.8,-3 6.8,-6.8 z m -1.1,0 c 0,3.1 -2.6,5.7 -5.7,5.7 -3.1,0 -5.7,-2.6 -5.7,-5.7 0,-3.1 2.6,-5.7 5.7,-5.7 3.1,0 5.7,2.6 5.7,5.7 z M 17.5,19 c 0,-0.9 -0.7,-1.6 -1.6,-1.6 -0.9,0 -1.6,0.7 -1.6,1.6 0,0.7 0.6,1.2 0.6,1.2 0.1,0.1 0.1,0.2 0.1,0.3 l 0,3.5 c 0,0.1 0.1,0.2 0.2,0.2 l 1.2,0 c 0.1,0 0.2,-0.1 0.2,-0.2 l 0,-3.4 c 0,-0.1 0.1,-0.2 0.1,-0.3 0.2,-0.1 0.8,-0.6 0.8,-1.3 z"
     style="fill:#00b30f;fill-opacity:1"
     inkscape:connector-curvature="0"
     sodipodi:nodetypes="cssccssccsssssssssssssssssscsssssscs" /></svg>